solid Mesh
  facet normal 0 0.501208 -0.865327
    outer loop
      vertex -48.875 -48.875 40
      vertex 48.875 -48.875 40
      vertex -49.875 -49.875 39.4208
    endloop
  endfacet
  facet normal 0 0.501208 -0.865327
    outer loop
      vertex 48.875 -48.875 40
      vertex 49.875 -49.875 39.4208
      vertex -49.875 -49.875 39.4208
    endloop
  endfacet
  facet normal 0.501208 0 -0.865327
    outer loop
      vertex -48.875 48.875 40
      vertex -48.875 -48.875 40
      vertex -49.875 49.875 39.4208
    endloop
  endfacet
  facet normal 0.501208 0 -0.865327
    outer loop
      vertex -48.875 -48.875 40
      vertex -49.875 -49.875 39.4208
      vertex -49.875 49.875 39.4208
    endloop
  endfacet
  facet normal 0 -0.501208 -0.865327
    outer loop
      vertex 48.875 48.875 40
      vertex -48.875 48.875 40
      vertex 49.875 49.875 39.4208
    endloop
  endfacet
  facet normal 0 -0.501208 -0.865327
    outer loop
      vertex -48.875 48.875 40
      vertex -49.875 49.875 39.4208
      vertex 49.875 49.875 39.4208
    endloop
  endfacet
  facet normal 1 0 0
    outer loop
      vertex 49.875 49.875 39.4208
      vertex 49.875 49.875 40
      vertex 49.875 -49.875 39.4208
    endloop
  endfacet
  facet normal 1 0 0
    outer loop
      vertex 49.875 49.875 40
      vertex 49.875 -49.875 40
      vertex 49.875 -49.875 39.4208
    endloop
  endfacet
  facet normal 0 0 1
    outer loop
      vertex -48.875 48.875 40
      vertex -49.875 49.875 40
      vertex -48.875 -48.875 40
    endloop
  endfacet
  facet normal 0 0 1
    outer loop
      vertex -49.875 49.875 40
      vertex -49.875 -49.875 40
      vertex -48.875 -48.875 40
    endloop
  endfacet
  facet normal 0 0 1
    outer loop
      vertex -48.875 -48.875 40
      vertex -49.875 -49.875 40
      vertex 48.875 -48.875 40
    endloop
  endfacet
  facet normal 0 0 1
    outer loop
      vertex -49.875 -49.875 40
      vertex 49.875 -49.875 40
      vertex 48.875 -48.875 40
    endloop
  endfacet
  facet normal 0 0 1
    outer loop
      vertex 48.875 -48.875 40
      vertex 49.875 -49.875 40
      vertex 48.875 48.875 40
    endloop
  endfacet
  facet normal 0 0 1
    outer loop
      vertex 49.875 -49.875 40
      vertex 49.875 49.875 40
      vertex 48.875 48.875 40
    endloop
  endfacet
  facet normal 0 0 1
    outer loop
      vertex 48.875 48.875 40
      vertex 49.875 49.875 40
      vertex -48.875 48.875 40
    endloop
  endfacet
  facet normal 0 0 1
    outer loop
      vertex 49.875 49.875 40
      vertex -49.875 49.875 40
      vertex -48.875 48.875 40
    endloop
  endfacet
  facet normal 0 1 0
    outer loop
      vertex -49.875 49.875 39.4208
      vertex -49.875 49.875 40
      vertex 49.875 49.875 39.4208
    endloop
  endfacet
  facet normal 0 1 0
    outer loop
      vertex -49.875 49.875 40
      vertex 49.875 49.875 40
      vertex 49.875 49.875 39.4208
    endloop
  endfacet
  facet normal -1 0 0
    outer loop
      vertex -49.875 -49.875 39.4208
      vertex -49.875 -49.875 40
      vertex -49.875 49.875 39.4208
    endloop
  endfacet
  facet normal -1 0 0
    outer loop
      vertex -49.875 -49.875 40
      vertex -49.875 49.875 40
      vertex -49.875 49.875 39.4208
    endloop
  endfacet
  facet normal 0 -1 0
    outer loop
      vertex 49.875 -49.875 39.4208
      vertex 49.875 -49.875 40
      vertex -49.875 -49.875 39.4208
    endloop
  endfacet
  facet normal 0 -1 0
    outer loop
      vertex 49.875 -49.875 40
      vertex -49.875 -49.875 40
      vertex -49.875 -49.875 39.4208
    endloop
  endfacet
  facet normal -0.501208 0 -0.865327
    outer loop
      vertex 48.875 -48.875 40
      vertex 48.875 48.875 40
      vertex 49.875 -49.875 39.4208
    endloop
  endfacet
  facet normal -0.501208 0 -0.865327
    outer loop
      vertex 48.875 48.875 40
      vertex 49.875 49.875 39.4208
      vertex 49.875 -49.875 39.4208
    endloop
  endfacet
endsolid Mesh
